<svg width="40" height="40" viewBox="0 0 40 40" fill="none" xmlns="http://www.w3.org/2000/svg">
<path d="M38.4375 12.5C38.4381 11.8539 38.2846 11.2171 37.9897 10.6422C37.6949 10.0674 37.2672 9.57118 36.7421 9.19475C36.2171 8.81832 35.6098 8.57253 34.9707 8.47779C34.3317 8.38305 33.6792 8.44209 33.0676 8.65001C32.4559 8.85793 31.9026 9.20873 31.4537 9.67329C31.0047 10.1379 30.6731 10.7028 30.4862 11.3212C30.2993 11.9397 30.2626 12.5937 30.3791 13.2292C30.4957 13.8646 30.7621 14.4631 31.1563 14.975L26.4953 20.7125L22.4328 11.375C23.1157 10.8639 23.6204 10.1507 23.8753 9.33675C24.1302 8.52275 24.1224 7.64917 23.8531 6.83983C23.5837 6.03049 23.0665 5.32646 22.3746 4.82755C21.6828 4.32864 20.8514 4.06015 19.9984 4.06015C19.1455 4.06015 18.3141 4.32864 17.6223 4.82755C16.9304 5.32646 16.4131 6.03049 16.1438 6.83983C15.8745 7.64917 15.8667 8.52275 16.1216 9.33675C16.3765 10.1507 16.8812 10.8639 17.5641 11.375L13.5016 20.7125L8.84375 14.975C9.39582 14.2572 9.69224 13.3755 9.68594 12.47C9.67964 11.5645 9.37099 10.687 8.80899 9.977C8.247 9.26696 7.46388 8.76504 6.58401 8.55095C5.70415 8.33685 4.77797 8.42287 3.95258 8.79533C3.12719 9.16779 2.44989 9.80534 2.02827 10.6067C1.60664 11.4081 1.46485 12.3274 1.62541 13.2186C1.78598 14.1098 2.23969 14.9218 2.9145 15.5256C3.58931 16.1295 4.44652 16.4906 5.35 16.5516L7.65625 30.3594C7.7412 30.8694 8.00406 31.3329 8.39822 31.6675C8.79237 32.0022 9.29232 32.1864 9.80938 32.1875L30.1906 32.1875C30.7077 32.1864 31.2076 32.0022 31.6018 31.6675C31.9959 31.3329 32.2588 30.8694 32.3438 30.3594L34.6453 16.5516C35.6733 16.483 36.6369 16.0264 37.341 15.2742C38.0451 14.5219 38.437 13.5303 38.4375 12.5ZM20 5.93749C20.4326 5.93749 20.8556 6.06579 21.2153 6.30615C21.575 6.54652 21.8554 6.88816 22.021 7.28787C22.1866 7.68758 22.2299 8.12742 22.1455 8.55175C22.0611 8.97609 21.8527 9.36586 21.5468 9.67179C21.2409 9.97771 20.8511 10.1861 20.4268 10.2705C20.0024 10.3549 19.5626 10.3115 19.1629 10.146C18.7632 9.98041 18.4215 9.70003 18.1812 9.3403C17.9408 8.98057 17.8125 8.55764 17.8125 8.12499C17.8125 7.54483 18.043 6.98843 18.4532 6.5782C18.8634 6.16796 19.4198 5.93749 20 5.93749ZM3.4375 12.5C3.4375 12.0673 3.5658 11.6444 3.80616 11.2847C4.04653 10.9249 4.38817 10.6446 4.78788 10.479C5.1876 10.3134 5.62743 10.2701 6.05176 10.3545C6.4761 10.4389 6.86587 10.6473 7.1718 10.9532C7.47773 11.2591 7.68607 11.6489 7.77047 12.0732C7.85488 12.4976 7.81156 12.9374 7.64599 13.3371C7.48042 13.7368 7.20005 14.0785 6.84031 14.3188C6.48058 14.5592 6.05765 14.6875 5.625 14.6875C5.04484 14.6875 4.48844 14.457 4.07821 14.0468C3.66797 13.6366 3.4375 13.0802 3.4375 12.5ZM30.5 30.0516C30.4877 30.1252 30.4494 30.192 30.3921 30.2399C30.3348 30.2878 30.2622 30.3135 30.1875 30.3125L9.80938 30.3125C9.7347 30.3135 9.66213 30.2878 9.60481 30.2399C9.54748 30.192 9.50919 30.1252 9.49688 30.0516L7.2 16.25L7.39063 16.1641L13.0156 23.0953C13.1047 23.2036 13.2168 23.2906 13.3439 23.3498C13.471 23.409 13.6098 23.439 13.75 23.4375C13.7924 23.4375 13.8347 23.4343 13.8766 23.4281C14.0361 23.4064 14.1873 23.3439 14.3156 23.2467C14.444 23.1496 14.5451 23.021 14.6094 22.8734L19.2844 12.1234C19.7576 12.2088 20.2424 12.2088 20.7156 12.1234L25.3906 22.8734C25.4549 23.021 25.5561 23.1496 25.6844 23.2467C25.8127 23.3439 25.9639 23.4064 26.1234 23.4281C26.1653 23.4343 26.2076 23.4375 26.25 23.4375C26.3895 23.4375 26.5273 23.4064 26.6533 23.3464C26.7792 23.2863 26.8902 23.199 26.9781 23.0906L32.6031 16.1594L32.7938 16.2453L30.5 30.0516ZM34.375 14.6875C33.9424 14.6875 33.5194 14.5592 33.1597 14.3188C32.8 14.0785 32.5196 13.7368 32.354 13.3371C32.1885 12.9374 32.1451 12.4976 32.2295 12.0732C32.3139 11.6489 32.5223 11.2591 32.8282 10.9532C33.1341 10.6473 33.5239 10.4389 33.9482 10.3545C34.3726 10.2701 34.8124 10.3134 35.2121 10.479C35.6118 10.6446 35.9535 10.9249 36.1938 11.2847C36.4342 11.6444 36.5625 12.0673 36.5625 12.5C36.5625 13.0802 36.332 13.6366 35.9218 14.0468C35.5116 14.457 34.9552 14.6875 34.375 14.6875Z" fill="#30A66D"/>
</svg>
