<svg width="15" height="18" viewBox="0 0 15 18" fill="none" xmlns="http://www.w3.org/2000/svg">
<path d="M1.45305 1.06264L14.6484 8.45327C14.746 8.50732 14.8275 8.58655 14.8842 8.68272C14.9409 8.77889 14.9708 8.8885 14.9708 9.00014C14.9708 9.11179 14.9409 9.22139 14.8842 9.31757C14.8275 9.41374 14.746 9.49297 14.6484 9.54702L1.45305 16.9376C1.3419 16.999 1.21468 17.0251 1.08833 17.0124C0.961988 16.9997 0.842506 16.9489 0.745795 16.8666C0.649084 16.7843 0.579733 16.6745 0.546974 16.5518C0.514215 16.4291 0.519603 16.2994 0.56242 16.1798L2.89923 9.625L7.5 9.625C7.84518 9.625 8.125 9.34518 8.125 9C8.125 8.65482 7.84518 8.375 7.5 8.375L2.89913 8.375L0.56242 1.82046C0.519603 1.70091 0.514215 1.57116 0.546974 1.44847C0.579733 1.32579 0.649084 1.21599 0.745795 1.13371C0.842506 1.05142 0.961988 1.00054 1.08833 0.987842C1.21468 0.975148 1.3419 1.00124 1.45305 1.06264Z" fill="white"/>
</svg>
